<?xml version="1.0" standalone="no"?>
<!DOCTYPE svg PUBLIC "-//W3C//DTD SVG 20010904//EN"
 "http://www.w3.org/TR/2001/REC-SVG-20010904/DTD/svg10.dtd">
<svg version="1.0" xmlns="http://www.w3.org/2000/svg"
 width="500.000000pt" height="500.000000pt" viewBox="0 0 500.000000 500.000000"
 preserveAspectRatio="xMidYMid meet">
<metadata>
Created by potrace 1.14, written by Peter Selinger 2001-2017
</metadata>
<g transform="translate(0.000000,500.000000) scale(0.100000,-0.100000)"
fill="#000000" stroke="none">
<path d="M2400 4570 c-587 -49 -1055 -465 -1176 -1045 -27 -130 -25 -384 4
-515 113 -512 482 -883 1002 -1007 59 -14 117 -18 270 -18 153 0 211 4 270 18
520 124 888 493 1003 1007 30 136 30 394 0 530 -91 407 -349 734 -718 910
-197 94 -438 138 -655 120z m313 -65 c356 -62 673 -280 860 -591 79 -131 130
-271 157 -432 50 -290 -7 -595 -157 -846 -188 -312 -502 -529 -860 -591 -126
-22 -332 -20 -454 5 -516 105 -900 500 -989 1018 -45 258 -7 518 109 756 173
353 512 610 897 680 106 19 330 20 437 1z"/>
<path d="M2133 3952 l-162 -45 -180 -182 c-202 -204 -225 -238 -225 -340 -1
-66 13 -109 56 -172 26 -39 840 -747 873 -759 21 -8 849 706 886 764 65 103
70 198 13 301 -14 27 -92 114 -182 204 l-157 156 -179 61 -179 60 -201 -1
-201 -1 -162 -46z"/>
<path d="M1785 1723 c-42 -6 -153 -42 -200 -66 -150 -75 -281 -242 -320 -409
-19 -81 -19 -216 0 -297 40 -170 170 -332 328 -410 140 -69 151 -70 907 -70
741 0 766 1 893 63 224 107 357 319 357 566 0 170 -62 321 -180 439 -75 76
-144 119 -250 158 l-75 28 -715 1 c-393 1 -728 0 -745 -3z"/>
</g>
</svg>
